<svg id="Layer_1" data-name="Layer 1" xmlns="http://www.w3.org/2000/svg" viewBox="0 0 2500 2500"><defs><style>.cls-1{font-size:772.83px;font-family:HarirDisplay-Bld, Harir Display;}.cls-1,.cls-2,.cls-3{fill:#fff;}.cls-2{font-size:163.62px;font-family:HarirDisplay-Reg, Harir Display;}</style></defs><text class="cls-1" transform="translate(13.16 1309.72)">ناجيت</text><text class="cls-2" transform="translate(0.56 1690.73)">نانسلا بط لولحل</text><path class="cls-3" d="M2157.76,936.9q-16.32-16.33-50.63-32.66T2044.74,884L2001,946.7q-17-16.34-52.26-33.32T1886,893.13l67.29-101.26a302.16,302.16,0,0,1,61.08,19.27,245.81,245.81,0,0,1,54.55,33l41.16-62.71A300,300,0,0,1,2172.46,802a284.3,284.3,0,0,1,55.21,33.65Z"/><path class="cls-3" d="M2050.67,1168.15c131.52-4.23,235.77-.61,362.18-53.79,4,0,71.43-22.49,71.43-22.49-23.26,73.37-80.91,287.06-99.71,405.48-11.12,70-35.57,135.82-71.22,196.72-12.65,21.62-30.73,42.45-51.18,56.64-46.1,32-94.18,6-95.73-50.26-1.44-52.42.92-105-1.13-157.34-1-26.19-5-53.2-13.22-78-15.87-47.8-58-74.22-109.65-73.78-51.42.44-94.12,27.64-108.87,75.11-8.4,27-11.39,56.37-12.77,84.86-2.06,42.76-.42,85.68-.66,128.53-.07,11.8-.06,23.79-2.08,35.34-6.73,38.48-41.73,58.15-78.41,44.39-31.58-11.85-51.64-36.39-67.23-64.63-40-72.42-66.38-149.43-76.44-231.83-5.81-47.61-11.6-95.24-18.52-142.69-6.1-41.82-23.43-79.94-34.17-120.42-7.43-28-14-85.29-12.34-114.73C1631,1085.28,1754.69,1183.76,2050.67,1168.15Z"/><path class="cls-3" d="M2481.8,1101.86q-17.64,69.57-41.81,100.93-48.34,75.78-168.56,116t-301.16,40.18q-198.6,0-269.49-70.56t-70.88-173.12q0-37.89,7.19-82.32a587,587,0,0,1,19.6-83.62l23.51-7.18q-4.58,15-8.81,34a161.36,161.36,0,0,0-4.25,35.28q0,60.75,75.45,108.77t300.19,48q212.33,0,309.67-32t97.34-45.08q-.66-18.94-30.06-71.21t-74.47-84.93l51.61-137.85a248.26,248.26,0,0,1,74.8,83.63Q2499.43,931,2499.44,999,2499.44,1032.27,2481.8,1101.86Z"/></svg>